<svg xmlns="http://www.w3.org/2000/svg" width="15.86" height="15.86" viewBox="0 0 15.86 15.86">
  <g id="Icon_feather-settings" data-name="Icon feather-settings" transform="translate(-1 -1)">
    <path id="Path_14" data-name="Path 14" d="M17.553,15.526A2.026,2.026,0,1,1,15.526,13.5,2.026,2.026,0,0,1,17.553,15.526Z" transform="translate(-6.596 -6.596)" fill="none" stroke="#fff" stroke-linecap="round" stroke-linejoin="round" stroke-width="1"/>
    <path id="Path_15" data-name="Path 15" d="M13.929,10.957a1.115,1.115,0,0,0,.223,1.229l.041.041a1.352,1.352,0,1,1-1.912,1.912L12.24,14.1a1.124,1.124,0,0,0-1.9.8v.115a1.351,1.351,0,0,1-2.7,0v-.061a1.115,1.115,0,0,0-.73-1.02,1.115,1.115,0,0,0-1.229.223l-.041.041a1.352,1.352,0,1,1-1.912-1.912l.041-.041a1.124,1.124,0,0,0-.8-1.9H2.851a1.351,1.351,0,0,1,0-2.7h.061a1.115,1.115,0,0,0,1.02-.73,1.115,1.115,0,0,0-.223-1.229l-.041-.041A1.352,1.352,0,1,1,5.58,3.722l.041.041a1.115,1.115,0,0,0,1.229.223H6.9a1.115,1.115,0,0,0,.675-1.02V2.851a1.351,1.351,0,1,1,2.7,0v.061a1.124,1.124,0,0,0,1.9.8l.041-.041A1.352,1.352,0,1,1,14.138,5.58L14.1,5.62a1.115,1.115,0,0,0-.223,1.229V6.9a1.115,1.115,0,0,0,1.02.675h.115a1.351,1.351,0,1,1,0,2.7h-.061a1.115,1.115,0,0,0-1.02.675Z" transform="translate(0 0)" fill="none" stroke="#fff" stroke-linecap="round" stroke-linejoin="round" stroke-width="1"/>
  </g>
</svg>
